<svg width="472" height="122" viewBox="0 0 472 122" fill="none" xmlns="http://www.w3.org/2000/svg">
<path fill-rule="evenodd" clip-rule="evenodd" d="M176.004 0.97998C159.328 0.97998 144.344 11.1646 138.207 26.6701L126.772 55.5621H136.067L145.162 32.5814H187.326L178.23 55.5621H187.525L209.127 0.97998H176.004ZM190.746 23.9392H149.328C155.175 15.1189 165.133 9.62215 176.004 9.62215H196.413L190.746 23.9392Z" fill="#FFB800"/>
<path d="M240.015 10.28C229.026 12.4905 219.687 20.1177 215.454 30.8146L205.659 55.5621H196.365L207.418 27.6342C213.785 11.5468 229.332 0.97998 246.633 0.97998H278.72L257.117 55.5621H247.823L266.005 9.62215H249.57L243.641 24.6042L231.593 31.5597L240.015 10.28Z" fill="#FFB800"/>
<path d="M471.348 0.97998H380.614C364.103 0.97998 349.267 11.0617 343.188 26.4121L340.74 32.5921H396.687L391.012 46.9199H292.453L266.557 55.5621H396.885L409.405 23.95H354.144C359.902 15.1289 369.8 9.62215 380.614 9.62215H449.768L471.348 0.97998Z" fill="#FFB800"/>
<path d="M288.174 0.97998H342.152L338.729 9.62215H303.186L297.511 23.95H333.65L330.228 32.5921H284.793L293.891 9.62215H284.751L288.174 0.97998Z" fill="#FFB800"/>
<path d="M138.175 0.97998H57.7192L32.1204 9.62215H71.327L53.1329 55.5621H118.375L130.894 23.95H93.1486L89.726 32.5921H118.177L112.502 46.9199H65.8508L80.6222 9.62215H134.753L138.175 0.97998Z" fill="#FFB800"/>
<path fill-rule="evenodd" clip-rule="evenodd" d="M185.926 67.3879H37.0617L0.673584 76.03H123.378L105.184 121.97H114.479L123.581 98.988H146.057C162.568 98.988 177.404 88.9063 183.483 73.5559L185.926 67.3879ZM127.003 90.3459L132.673 76.03H172.52C166.76 84.8441 156.866 90.3459 146.057 90.3459H127.003Z" fill="white"/>
<path fill-rule="evenodd" clip-rule="evenodd" d="M220.362 67.3879H314.675C326.717 67.3879 334.967 79.5292 330.533 90.7254L326.183 101.71C321.34 113.939 309.521 121.97 296.369 121.97H248.369L266.563 76.03H250.065L231.883 121.97H222.589L231.684 98.9892H189.521L180.425 121.97H171.131L182.566 93.0779C188.703 77.5725 203.687 67.3879 220.362 67.3879ZM235.104 90.3471H193.686C199.534 81.5268 209.492 76.03 220.362 76.03H240.771L235.104 90.3471ZM261.087 113.328L275.858 76.03H314.675C320.616 76.03 324.686 82.0197 322.498 87.5432L318.148 98.5283C314.61 107.461 305.977 113.328 296.369 113.328H261.087Z" fill="white"/>
<path d="M426.639 76.03H337.735L341.158 67.3879H458.479L426.639 76.03Z" fill="white"/>
</svg>
