<svg width="756" height="128" viewBox="0 0 756 128" fill="none" xmlns="http://www.w3.org/2000/svg">
<path d="M64 0C99.3462 0 128 28.6538 128 64C128 69.2032 127.379 74.2614 126.207 79.1045L96 64C96 46.3269 81.6731 32 64 32C46.3269 32 32 46.3269 32 64C32 81.6731 46.3269 96 64 96V128C28.6538 128 0 99.3462 0 64C0 28.6538 28.6538 0 64 0ZM64 48L96 64C96 81.4964 81.9582 95.7131 64.5292 95.9957L64 96V48Z" fill="#08CF65"/>
<path d="M178.48 83.34V40.5H163V83.34H178.48ZM226.66 90L235.12 86.58L232.36 82.02C241.04 78.58 245.38 71.88 245.38 61.92C245.38 54.16 242.77 48.4 237.55 44.64C232.33 40.88 224.58 39 214.3 39C204.06 39 196.33 40.88 191.11 44.64C185.89 48.4 183.28 54.16 183.28 61.92C183.28 69.68 185.89 75.44 191.11 79.2C196.33 82.96 204.06 84.84 214.3 84.84C217.54 84.84 220.5 84.66 223.18 84.3L226.66 90ZM214.3 73.2C209.62 73.2 206.11 72.23 203.77 70.29C201.43 68.35 200.26 65.56 200.26 61.92C200.26 58.28 201.43 55.49 203.77 53.55C206.11 51.61 209.62 50.64 214.3 50.64C218.98 50.64 222.5 51.61 224.86 53.55C227.22 55.49 228.4 58.28 228.4 61.92C228.4 65.4 227.32 68.1 225.16 70.02L221.68 64.2L213.22 67.74L216.46 73.08C215.5 73.16 214.78 73.2 214.3 73.2ZM287.08 83.34V70.2H308.62C314.9 70.2 319.4 69.01 322.12 66.63C324.84 64.25 326.2 60.5 326.2 55.38C326.2 50.3 324.84 46.55 322.12 44.13C319.4 41.71 314.9 40.5 308.62 40.5H271.6V83.34H287.08ZM304.06 60.18H287.08V51.3H304.06C305.82 51.3 307.12 51.66 307.96 52.38C308.8 53.1 309.22 54.22 309.22 55.74C309.22 58.7 307.5 60.18 304.06 60.18ZM346.06 83.34V70.44H361.84L369.64 83.34H387.58L377.26 67.56V67.02C380.22 66.34 382.5 65.06 384.1 63.18C385.7 61.3 386.5 58.52 386.5 54.84C386.5 50 385.16 46.4 382.48 44.04C379.8 41.68 375.38 40.5 369.22 40.5H330.58V83.34H346.06ZM364.6 60.18H346.06V52.02H364.6C366.24 52.02 367.44 52.35 368.2 53.01C368.96 53.67 369.34 54.7 369.34 56.1C369.34 57.5 368.96 58.53 368.2 59.19C367.44 59.85 366.24 60.18 364.6 60.18ZM420.76 84.84C431.04 84.84 438.79 82.96 444.01 79.2C449.23 75.44 451.84 69.68 451.84 61.92C451.84 54.16 449.23 48.4 444.01 44.64C438.79 40.88 431.04 39 420.76 39C410.52 39 402.79 40.88 397.57 44.64C392.35 48.4 389.74 54.16 389.74 61.92C389.74 69.68 392.35 75.44 397.57 79.2C402.79 82.96 410.52 84.84 420.76 84.84ZM420.76 73.2C416.08 73.2 412.57 72.23 410.23 70.29C407.89 68.35 406.72 65.56 406.72 61.92C406.72 58.28 407.89 55.49 410.23 53.55C412.57 51.61 416.08 50.64 420.76 50.64C425.44 50.64 428.96 51.61 431.32 53.55C433.68 55.49 434.86 58.28 434.86 61.92C434.86 65.56 433.68 68.35 431.32 70.29C428.96 72.23 425.44 73.2 420.76 73.2ZM488.5 83.34V52.62H507.88V40.5H453.58V52.62H473.02V83.34H488.5ZM540.64 84.84C550.92 84.84 558.67 82.96 563.89 79.2C569.11 75.44 571.72 69.68 571.72 61.92C571.72 54.16 569.11 48.4 563.89 44.64C558.67 40.88 550.92 39 540.64 39C530.4 39 522.67 40.88 517.45 44.64C512.23 48.4 509.62 54.16 509.62 61.92C509.62 69.68 512.23 75.44 517.45 79.2C522.67 82.96 530.4 84.84 540.64 84.84ZM540.64 73.2C535.96 73.2 532.45 72.23 530.11 70.29C527.77 68.35 526.6 65.56 526.6 61.92C526.6 58.28 527.77 55.49 530.11 53.55C532.45 51.61 535.96 50.64 540.64 50.64C545.32 50.64 548.84 51.61 551.2 53.55C553.56 55.49 554.74 58.28 554.74 61.92C554.74 65.56 553.56 68.35 551.2 70.29C548.84 72.23 545.32 73.2 540.64 73.2ZM605.92 84.84C615.68 84.84 623.08 83.2 628.12 79.92C633.16 76.64 635.76 71.78 635.92 65.34H617.38C617.14 67.62 616.06 69.5 614.14 70.98C612.22 72.46 609.46 73.2 605.86 73.2C601.46 73.2 598.12 72.22 595.84 70.26C593.56 68.3 592.42 65.52 592.42 61.92C592.42 58.32 593.56 55.54 595.84 53.58C598.12 51.62 601.46 50.64 605.86 50.64C608.26 50.64 610.3 50.99 611.98 51.69C613.66 52.39 614.95 53.27 615.85 54.33C616.75 55.39 617.28 56.48 617.44 57.6H635.8C635.64 51.56 633.04 46.95 628 43.77C622.96 40.59 615.6 39 605.92 39C585.6 39 575.44 46.64 575.44 61.92C575.44 77.2 585.6 84.84 605.92 84.84ZM670.66 84.84C680.94 84.84 688.69 82.96 693.91 79.2C699.13 75.44 701.74 69.68 701.74 61.92C701.74 54.16 699.13 48.4 693.91 44.64C688.69 40.88 680.94 39 670.66 39C660.42 39 652.69 40.88 647.47 44.64C642.25 48.4 639.64 54.16 639.64 61.92C639.64 69.68 642.25 75.44 647.47 79.2C652.69 82.96 660.42 84.84 670.66 84.84ZM670.66 73.2C665.98 73.2 662.47 72.23 660.13 70.29C657.79 68.35 656.62 65.56 656.62 61.92C656.62 58.28 657.79 55.49 660.13 53.55C662.47 51.61 665.98 50.64 670.66 50.64C675.34 50.64 678.86 51.61 681.22 53.55C683.58 55.49 684.76 58.28 684.76 61.92C684.76 65.56 683.58 68.35 681.22 70.29C678.86 72.23 675.34 73.2 670.66 73.2ZM755.56 83.34V71.46H722.08V40.5H706.6V83.34H755.56Z" fill="#181F38"/>
</svg>
