<?xml version="1.0" encoding="UTF-8"?>
<svg fill="none" viewBox="0 0 62 26" xmlns="http://www.w3.org/2000/svg">
<path d="m16.002 2.3472c1.1354-1.5648 2.5272-2.3472 4.212-2.3472h40.398c1.172 0 1.6115 0.48148 1.2819 1.4745-0.1099 0.30092-0.2564 0.60185-0.4762 0.90277l-1.6847 2.3472c-0.6959 0.96296-1.6116 1.6551-2.7836 2.0764-0.5494 0.18055-1.0255 0.30092-1.465 0.30092h-35.38c-0.7692 0-1.5017 0.39121-2.1243 1.2037-0.1099 0.15046-0.1831 0.30092-0.2198 0.42129-0.1831 0.51158 0.0367 0.75232 0.6593 0.75232h34.098c1.7581 0 2.3807 0.72223 1.9046 2.1666-0.1832 0.5116-0.4029 0.963-0.6959 1.3542l-7.6914 10.623c-1.0255 1.4143-2.4539 2.2268-4.2119 2.3773h-40.435c-1.172 0-1.6115-0.4815-1.2819-1.4745 0.10988-0.301 0.25638-0.6019 0.47613-0.9028l5.1276-7.0718c1.0255-1.4143 2.4539-2.2268 4.2119-2.3773h32.853c0.7692 0 1.5017-0.3912 2.1243-1.1736 0.1099-0.1505 0.1831-0.3009 0.2198-0.4514 0.1465-0.4815-0.0367-0.7222-0.6227-0.7222h-31.571c-1.7947 0-2.4539-0.7222-1.9778-2.1366 0.1465-0.39121 0.4029-0.8426 0.7691-1.3843l4.2852-5.9583z" fill="#fff"/>
</svg>
