<svg xmlns="http://www.w3.org/2000/svg" viewBox="0 0 1421.83 691.4"><defs><style>.cls-1{fill:#fff;}</style></defs><g id="Layer_2" data-name="Layer 2"><g id="Layer_8" data-name="Layer 8"><path class="cls-1" d="M628.3,500.45H477.48V149.87H628.3v50.94H533.41v96.38h75.41v50.94H533.41V449.51H628.3Zm-149.82-1H627.3V450.51H532.41V347.13h75.41V298.19H532.41V199.81H627.3V150.87H478.48Z"/><polygon class="cls-1" points="696.53 440.75 696.52 440.77 696.51 440.77 696.53 440.75"/><polygon class="cls-1" points="661.76 481.04 661.76 481.21 661.64 481.33 661.76 481.04"/><path class="cls-1" d="M1082.21,50.74c-1.62,1.55-48.5,46-69,65.52-19.27,18.3-18.12,24.42-28.89,34.17-.91.83-1.91,1.68-3,2.57-14.13,11.37-26.81,18.2-46.75,41.16s-26.81,36.65-38.53,46.6c-7.51,6.37-16.63,12.49-25.49,20a117.5,117.5,0,0,0-14.33,14.11c-7.15,8.47-13.94,16.26-21.12,23.24A136.86,136.86,0,0,1,818,312.37a68.4,68.4,0,0,0-7.24,6.15l-37.17,31.61-38.91,33.09-18,20.65-44.33,51-3.7,4.25-6.9,7.94-1,1.16a56.31,56.31,0,0,0-9.22,14.6c-3.2,7.36-8.55,18.16-14.11,22.72-8.68,7.12-19.33,38.76-19.66,39.75h0c-4.32,6.05-8.63,12.32-12.83,18.85-15.37,23.93-29.88,37.75-44.63,55.4s-20,28.19-29.08,39.48c-8.89,11.11-21.74,31.74-22.14,32.38.62-1.26,32.23-65.87,45.47-90.57,13.36-24.94,28.25-41.2,39-54.26,5.57-6.77,18.54-26.47,31.59-46.62l2.65-4.1C639,478.47,650,461.38,655.89,452.57c1.68-2.5,3.66-5.19,5.87-8,14.79-19,39.9-44.34,54.93-62.17.44-.51.87-1,1.28-1.52,5.67-6.82,15.52-18.06,26.78-30.73,22.48-25.31,50.57-56.32,62.12-69.27,5.37-6,15.9-15.88,28.18-26.93,11.38-10.24,24.26-21.5,35.94-31.68,16.38-14.29,30.41-26.47,34.58-30.75,8.53-8.73,34.73-30,50-45.12h0a107.86,107.86,0,0,0,8.12-8.77c11.29-14.11,32-24.81,43-35.13C1017.53,92.32,1080.25,52,1082.21,50.74Z"/><path class="cls-1" d="M968,0c-1.13.88-37.38,29.1-51.75,47.84-14.61,19-24.9,42.89-35.66,56s-34,29.11-47,45l-1.29,1.59c-11.68,14.48-37.7,49.32-53.22,70.15l-7.77,10.42c-3.61,4.84-7.68,10.47-12,16.53l-.05.07L733.47,278.4l-14.75,21.79-11.29,16.69c-13.39,16.1-31,36.91-45.67,54.7-11.66,14.19-21.39,26.45-25.48,32.9-7.57,11.93-21.23,30.69-32.44,45.53-6.65,8.8-12.45,16.22-15.61,20-4.32,5.19-13.35,17.19-22.39,29.91-8.78,12.34-17.56,25.36-22.06,33.49-9.14,16.52-51,61.43-56.36,65.35S527.88,540,537.4,521A211.2,211.2,0,0,1,550.3,500c12.94-19.19,29.88-41.4,34.19-47.61l1.62-2.33c9.7-13.9,46-65.78,52-77.6,3.77-7.52,13.8-22.16,23.68-35.76,6.74-9.27,13.4-18.06,18-23.77,6.64-8.31,22.31-32.19,37-53.29,10.25-14.75,20-28.14,25.8-33.91,6.78-6.72,21.69-23.63,36.63-40.8,11-12.69,22.09-25.53,29.89-34.51,3.65-4.21,6.6-7.57,8.49-9.68,11.44-12.73,19.76-31,36.52-47.61s48.33-44.32,58.57-56.33C922.66,24.94,966.65.75,968,0Z"/><path class="cls-1" d="M777.87,102.33s-30.23,46.81-41.52,60.92c-4.92,6.16-12.12,14.61-19.66,23.73-9.74,11.78-20,24.67-26.74,35.18-5.72,9-16.76,24.26-28.19,39.63-12.33,16.58-25.14,33.27-32.3,42.33s-14.44,22-21.14,34.5c-1.63,3.06-3.23,6.08-4.77,9-4.5,8.54-8.53,16.23-11.71,21.35-8.74,14.07-35.41,52.12-41.66,59.53-2,2.4-7.15,11-13.16,21.5-10.45,18.28-23.56,42.37-27.66,49.94l-1.29,2.38.76-2.38c2.92-9.14,13.86-42.6,24.08-65.16,1.08-2.38,2.15-4.64,3.2-6.74,12.69-25.28,23.27-46.35,32.3-57.64,3.77-4.7,10-13.2,16.72-22.78,8.31-11.85,17.32-25.37,23.19-35.43.77-1.32,1.49-2.58,2.14-3.77,9.65-17.53,40.1-54.82,51.3-70.39l.07-.1c11.15-15.5,32.63-48.24,47.26-64,2.58-2.77,5.12-5.63,7.6-8.51,11.6-13.48,21.91-27.6,28.8-37.18C753.85,116.65,777.87,102.33,777.87,102.33Z"/><path class="cls-1" d="M934.52,194.16c19.94-23,32.62-29.79,46.75-41.16,1.1-.89,2.1-1.74,3-2.57a105.66,105.66,0,0,0-28.65-4.05H953.9C904,146.37,875,173.78,871,222.25q-.5,5.81-.49,12v26.46c8.86-7.48,18-13.6,25.49-20C907.71,230.81,914.59,217.12,934.52,194.16Z"/><path class="cls-1" d="M998.78,156.35h0c-5.25-3.11,2.22-13.27,2.22-13.27l-9.51,9.86h0l-5.92,6.14-14.27,14.8-5.14,5.33-13.81,14.31h0l-2.28,2.37-.62.64h0l-24.3,25.2h0L907,240.54l-4,4.14-8.83,9.15L870.5,278.38h0L861,288.25s9.44-7.9,9.52-.09v.11a100,100,0,0,0-1.49,10c-.07,1.6.74,3.87,1.49,6.07v111.7c0,55.93,29.46,87.89,83.4,87.89s83.4-32,83.4-87.89V234.27C1037.3,196.62,1024,169.85,998.78,156.35ZM982.37,419.54c0,25-11,34.46-28.47,34.46s-28.47-9.48-28.47-34.46V230.77c0-1,0-1.9.05-2.82a20.41,20.41,0,0,1,3.48-8.74l17.72-18.37c4.83-4.07,8.88-4.48,9-4.49,16.43.64,26.68,10.31,26.68,34.42Z"/><path class="cls-1" d="M228.24,500.45H154.42L151.26,471l.33-.15c.32-.16.66-.3,1-.45q2.34-2.94,4.7-5.84l.18-.13q3-1.44,6.11-2.82l.1,0h.11c1.66,0,3.32,0,5,.08,1.53-1.34,3.06-2.68,4.6-4s3.21-2.33,4.81-3.46l.13-.09h.16c1.9,0,3.77,0,5.66.08,1.46-1.67,2.94-3.33,4.42-5l.2-.23.29.08c1.6.41,3.18.84,4.77,1.29,1.43-1.71,2.86-3.42,4.31-5.1l.11-.12.17,0c3.67-.76,7.37-1.46,11-2.07h.11c1.83.12,3.65.24,5.46.4,1.9-1.51,3.81-3,5.73-4.48,1.52-1,3-1.93,4.5-2.86.44-.94.88-1.88,1.33-2.81l.08-.17.18-.07c1.41-.57,2.83-1.12,4.24-1.66l.56-.22h.12l3.53.41.68.08Zm-72.92-1h72l7.47-66.95-3.09-.36-.34.13c-1.35.52-2.7,1-4,1.58-.44.91-.87,1.83-1.3,2.75l-.06.14-.13.07q-2.29,1.44-4.57,2.92c-1.93,1.49-3.89,3-5.84,4.56l-.16.13-.19,0c-1.86-.16-3.72-.29-5.59-.41-3.54.6-7.16,1.28-10.74,2-1.48,1.71-2.95,3.46-4.4,5.2l-.2.25-.32-.09c-1.59-.45-3.17-.88-4.76-1.3-1.46,1.63-2.92,3.27-4.36,4.92l-.16.18h-.23c-1.91-.05-3.8-.08-5.71-.09-1.56,1.1-3.1,2.21-4.64,3.33-1.56,1.33-3.13,2.71-4.7,4.09l-.15.13h-.19c-1.68,0-3.36-.07-5.05-.08q-2.94,1.33-5.9,2.72-2.35,2.89-4.69,5.84l-.08.1-.11.05-.77.33Zm-39.95,1H102.21l3-1,2.5-.8,1-.32c1.81-2.12,3.73-4.31,5.69-6.53l.14-.11c.26-.15.54-.29.81-.43l1.06-.56Zm-6.82-1h5.92l.75-7-.11.07c-2,2.23-3.9,4.43-5.72,6.56l-.09.1Zm-11.12,1H74.51l.53-1.33.17-.08c1.93-.92,4-1.87,6.22-2.89,1.69-3.41,3.28-6.54,4.85-9.57l3.43-4.9q1.35-2,2.72-3.95l.62-.9c1.21-2,2.45-4.05,3.69-6.07s2.7-3.82,4.06-5.69l.15-.14c1.57-.95,3.13-1.88,4.7-2.79,1.45-2.31,2.9-4.6,4.38-6.88l.07-.11.11-.06c1.84-1,3.71-2,5.58-3,1.41-1.21,2.85-2.41,4.29-3.6l1-.79-3.72,34.45a2.44,2.44,0,0,1-.1.24l-.16.38-.17.08c-1.24.6-2.48,1.2-3.72,1.82-2.71,2.24-5.38,4.5-7.93,6.73-2.42,2.47-4.59,4.74-6.61,6.9l-1.05,1.9Zm-20.75-1H96.83l1-1.71.07-.09c2-2.18,4.22-4.46,6.69-7,2.6-2.27,5.3-4.55,8-6.81l.09-.06c1.2-.6,2.41-1.18,3.61-1.77l0,0,.06-.15L119.77,450c-1.13.94-2.26,1.89-3.37,2.85l-.1.06c-1.84,1-3.68,2-5.5,3-1.48,2.27-2.92,4.56-4.37,6.87l-.06.1-.11.06c-1.57.91-3.14,1.85-4.71,2.8q-2,2.76-4,5.57c-1.22,2-2.46,4-3.69,6.06l-.64.92-2.72,4-3.39,4.85c-1.56,3-3.17,6.19-4.89,9.65l-.08.16L82,497C80.09,497.85,78.34,498.66,76.68,499.45Zm-5.36,1H49.53l.32-.71,1.45-3.07.14-.17q2-1.61,4-3.18,0-3.78,0-7.57v-.21l.15-.15q2.33-2.22,4.68-4.38c1-1.92,2.05-3.83,3.09-5.74l0-.1.1-.07c1.53-1.08,3-2.13,4.58-3.18.68-1.94,1.38-3.88,2.08-5.81.31-2.19.64-4.36,1-6.53l0-.19.15-.12c1.36-1.1,2.73-2.17,4.1-3.24l0,0c.93-1.28,1.87-2.56,2.82-3.82.52-2.81,1-5.62,1.61-8.42l0-.14.1-.11c1.59-1.65,3.08-3.17,4.54-4.62.78-2.4,1.58-4.8,2.4-7.18l0-.11q1.78-2.79,3.61-5.55l.08-.11.11-.06c1.67-.85,3.36-1.7,5-2.52q2.1-2.4,4.23-4.77c.61-2.46,1.23-4.92,1.88-7.39l0-.13.1-.1c1.51-1.48,2.91-2.84,4.31-4.14l.12-.12.18,0,2.95-.24c1.35-1.59,2.71-3.15,4.07-4.71q.72-3.92,1.49-7.83l0-.14c1.05-2,2.12-3.91,3.19-5.85l.07-.13.12-.07q2.63-1.47,5.26-2.88c.94-1.44,1.88-2.85,2.84-4.26l1.91-3.83-4.33,40.4-.06.1c-1.12,1.76-2.21,3.52-3.29,5.3l-.09.1c-1.56,1.5-3.13,3-4.68,4.54l-.14.09c-2.4,1.14-4.72,2.26-6.88,3.35-1.58,2.75-3.17,5.57-4.85,8.62-.89,2.63-1.78,5.34-2.66,8.05l-.05.12c-1.35,2.08-2.69,4.19-4,6.3l-.09.1c-1.84,1.67-3.55,3.25-5.2,4.81q-1.29,4-2.52,8.05l0,.11-.08.09c-1.65,1.73-3.31,3.49-4.94,5.26-1.2,2.27-2.39,4.53-3.57,6.82-.5,3.12-1,6.24-1.45,9.38l0,.19-.15.12c-1.58,1.32-3.14,2.66-4.77,4.08l-.48.93c-.89,1.69-1.77,3.37-2.63,5.07Zm-20.23-1h19.4l.23-1.11q1.32-2.58,2.67-5.14L74,492c1.61-1.41,3.16-2.73,4.71-4,.46-3.11.94-6.2,1.44-9.29l0-.15c1.2-2.33,2.43-4.64,3.65-6.95l.07-.11q2.44-2.64,4.92-5.24,1.23-4,2.52-8.07l0-.12.1-.09c1.67-1.58,3.39-3.17,5.26-4.86,1.3-2.08,2.62-4.15,3.94-6.2.88-2.7,1.76-5.39,2.68-8.08,1.74-3.18,3.36-6.05,5-8.85l.07-.13.13-.07c2.19-1.09,4.53-2.24,7-3.39q2.28-2.24,4.59-4.44c1.06-1.73,2.12-3.45,3.2-5.16l3.75-35c-.81,1.22-1.62,2.44-2.43,3.68l-.07.1-.12.06c-1.74.94-3.49,1.89-5.22,2.87-1,1.87-2.07,3.76-3.09,5.65-.51,2.62-1,5.25-1.49,7.88l0,.14-.1.1q-2.15,2.46-4.28,5l-.14.15-.2,0-3,.24c-1.31,1.24-2.64,2.52-4.06,3.92-.64,2.45-1.26,4.91-1.87,7.36l0,.12-.08.1c-1.47,1.62-2.93,3.27-4.37,4.93l-.16.12c-1.68.81-3.35,1.65-5,2.5-1.18,1.77-2.34,3.57-3.5,5.37q-1.23,3.6-2.41,7.22l0,.12-.09.08c-1.45,1.45-2.93,2.95-4.51,4.59-.56,2.78-1.08,5.58-1.6,8.38l0,.12-.07.09c-1,1.28-1.93,2.59-2.89,3.9l-.15.18c-1.33,1-2.67,2.09-4,3.16-.33,2.11-.65,4.24-1,6.37l0,.1q-1.09,3-2.15,6l0,.16-.14.09c-1.54,1.06-3.07,2.12-4.61,3.2-1,1.9-2.06,3.8-3.07,5.7l-.1.14q-2.31,2.12-4.57,4.27,0,3.81,0,7.59v.25l-.2.16c-1.38,1.07-2.75,2.16-4.12,3.25C51.79,498,51.44,498.7,51.09,499.45Zm-4.53,1h-7.5L39,500,0,149.87H54.44l29,271.22,26-271.22h53.85l.05.45L180,318.55l-.27.25c-.62.58-1.24,1.16-1.84,1.75l-.19.11q-2.73.91-5.44,1.88c-.93,1.63-1.82,3.26-2.72,4.9l-.07.09c-1.15,1.3-2.28,2.62-3.42,3.94l-.11.12-.16,0c-1.51.36-3,.74-4.53,1.13s-2.94,1-4.42,1.46c-1.15,1.24-2.29,2.5-3.43,3.76l-.08.08-.11.05q-2.22.86-4.44,1.75c-1,1.75-2,3.52-3,5.29l-.06.11-.11.07c-1.56.95-3.12,1.94-4.66,2.92-.52,1-1,2-1.55,3l-.76,1.51-3.69-34.43-4.93,46h-.45c-1.91.11-3.69.24-5.42.39-1.31,1.05-2.61,2.13-3.91,3.22q-1.38,2.72-2.71,5.44c-1.37,2.44-2.57,4.63-3.69,6.74l-.11.15c-1.73,1.51-3.48,3.08-5.19,4.68-1.48,1.59-3,3.28-4.69,5.15-1,2-2,4-3,6l-.4,1.37-.51-.21-1.26-.5c-.21.05-.41.11-.62.18l-.2.06q-1.83,2.19-3.62,4.4c-.93,1.74-1.89,3.55-2.85,5.38-1.21,1.63-2.39,3.21-3.54,4.8-.68,2.19-1.36,4.39-2,6.59l0,.12-.24.39c-.36.61-.73,1.22-1.08,1.84l-1.15,2v-.06l-1,1.68-.06.11c-1.25,2.17-2.48,4.36-3.69,6.55l-.09.11-4.14,4.18q-1.65,2.59-3.27,5.22c-1.25,1.71-2.47,3.41-3.69,5.12q-.6,3.6-1.18,7.2c-.55,2.05-1.08,4.06-1.61,6.08-.77,1.87-1.51,3.7-2.24,5.53l-.05.12-.11.09q-1.93,1.49-3.86,3c-1,3.45-1.92,6.59-2.76,9.6-.72,2.07-1.43,4.12-2.11,6.18l-.08.15c-1.2,1.52-2.41,3.06-3.59,4.61q-1.29,3.18-2.52,6.37-.34,2.78-.65,5.56Zm-6.6-1h5.7c.2-1.73.4-3.46.61-5.18l0-.12c.84-2.18,1.7-4.34,2.58-6.51l.06-.11c1.18-1.55,2.39-3.09,3.59-4.61.67-2,1.38-4.06,2.08-6.07.84-3,1.76-6.23,2.8-9.74l0-.15.13-.1q1.92-1.55,3.89-3.05c.71-1.79,1.43-3.58,2.17-5.35.51-2,1-4,1.58-6,.38-2.39.78-4.83,1.19-7.27v-.12l.07-.09c1.24-1.74,2.48-3.47,3.75-5.19,1.06-1.73,2.17-3.5,3.28-5.24l.06-.08c1.38-1.4,2.76-2.8,4.14-4.17,1.21-2.18,2.43-4.36,3.67-6.51l.06-.11,1.06-1.82-29-271H1.12Zm70.42-348.58L84.72,418.13l.15-.24c.66-2.21,1.35-4.43,2-6.63l.07-.14c1.18-1.61,2.37-3.22,3.56-4.81.92-1.76,1.88-3.59,2.86-5.4,1.28-1.6,2.52-3.11,3.77-4.61l.1-.12.5-.14.8-.23.16,0,.15.06.91.36.12-.39c1-2.11,2-4.14,3-6.15l.08-.11c1.69-1.9,3.25-3.61,4.77-5.25,1.73-1.6,3.46-3.16,5.17-4.66,1.11-2.1,2.3-4.28,3.64-6.66.9-1.83,1.82-3.68,2.75-5.53l.13-.15c1.37-1.16,2.74-2.29,4.13-3.4l.11-.09.16,0c1.66-.14,3.36-.26,5.2-.37L134.9,309l4.33,40.34.84-1.65.07-.12.11-.07c1.55-1,3.11-2,4.68-2.94,1-1.78,2-3.57,3.07-5.33l.08-.15.16-.06c1.5-.61,3-1.21,4.5-1.78q1.71-1.91,3.44-3.77l.09-.09.12,0c1.52-.52,3.05-1,4.59-1.53s3-.75,4.42-1.1c1.09-1.27,2.18-2.53,3.29-3.78.92-1.68,1.84-3.35,2.79-5l.1-.16.17-.06q2.76-1,5.52-1.91l1.69-1.6L162.42,150.87Zm86,212.85.06-.61,21.87-213.24h49l-.06.56L246.84,333.5v.14l-.08.07c-.6,1-1.18,1.93-1.76,2.9l-.16.27-.32,0c-2.14-.19-4.29-.37-6.44-.52q-2.39,2.22-4.73,4.5l-.15.15H233c-2-.05-4.19-.09-6.59-.1-1.94.79-3.93,1.63-5.92,2.49-1.34,2.32-2.67,4.66-4,7l-.08.15-.15.07c-2,.91-4,1.82-6,2.77l-.17,0c-2.69.21-5.15.42-7.51.67-1.44,3.23-2.76,6.24-4,9.18l-.12.27-.3,0-1.06.11Zm22.83-212.85L197.54,362.6l.18,0c1.25-2.94,2.57-5.94,4-9.18l.12-.27.29,0c2.43-.25,5-.48,7.73-.69,1.93-.91,3.88-1.8,5.82-2.68,1.32-2.34,2.65-4.69,4-7l.08-.14.15-.07c2.08-.9,4.16-1.78,6.18-2.6l.19,0c2.37,0,4.5,0,6.51.09q2.35-2.28,4.76-4.51l.16-.15h.21c2.12.15,4.25.33,6.37.51.51-.85,1-1.7,1.56-2.54l20.32-182.41Z"/><path class="cls-1" d="M444.52,500.45H293.7V149.87H444.52v50.94H349.63v96.38H425v50.94H349.63V449.51h94.89Zm-149.82-1H443.52V450.51H348.63V347.13H424V298.19H348.63V199.81h94.89V150.87H294.7Z"/><path class="cls-1" d="M1159.66,150.06h-86.9V499.64h86.9a126,126,0,0,0,16-1c-.49-.71-1-1.42-1.5-2.12l-2.74-.68q-1.73-1.71-3.46-3.39-2.55-2.14-5.15-4.25c-.28-1.63-.57-3.26-.87-4.88q-2-4.55-4-9.08c-1.82-1-3.66-2-5.49-3,.07-1.53.14-3.05.2-4.58q-2.65-1.61-5.35-3.17-.48-2.57-1-5.11c-1.28-1.22-2.56-2.44-3.87-3.65q-2.2-1.79-4.46-3.54l-.27-1.47h-10V438.38l-.15-.08q-2.07-3.07-4.22-6.14c-.89-1.12-1.79-2.23-2.7-3.35-.24-1.44-.48-2.87-.74-4.31l-4.32-2.79c-.64-1.34-1.27-2.69-1.93-4l-2.84-2.13q-2.35-1.94-4.76-3.84c-1.12-1.54-2.26-3.09-3.41-4.62q-3.42-2.24-6.9-4.43-1-2.1-2-4.2l-2.24-4.09c-2.07-.6-4.13-1.19-6.21-1.77-1-2.57-2-5.12-3.08-7.68,2,1.69,4,3.39,6,5.1,2.4.92,4.78,1.85,7.16,2.78q3.66,2.61,7.25,5.26,3.66,3.17,7.21,6.4c.72,1.05,1.43,2.1,2.14,3.16q3.36.93,6.71,1.91c1.78,1.21,3.53,2.44,5.28,3.66,1.21,1.87,2.41,3.74,3.58,5.61l.14.35V377.08c-1.61-1.3-3.22-2.58-4.86-3.86-1.54-2-3.11-3.91-4.69-5.86-2.1-1.13-4.21-2.26-6.34-3.37q-1.43-2.64-2.9-5.27t-3.2-5.12c-2.66-.84-5.32-1.65-8-2.45-1.53-3.19-3.09-6.38-4.71-9.55q4.13,3.22,8.14,6.51c3.12,1.22,6.2,2.47,9.28,3.74q3.87,3.91,7.61,7.89,4.48,2.33,8.89,4.73.4,2,.78,4V319.64c-1.61-2-3.23-4-4.88-6q2.46,1.74,4.88,3.49V200h31c17.48,0,28,9,28,34v83c1.61,1,3.2,2.11,4.79,3.17,2.42.75,4.86,1.52,7.28,2.29,1.27,1.32,2.52,2.65,3.78,4q2.76,1.35,5.5,2.73c1.56,1.52,3.11,3,4.64,4.58.76,1.66,1.51,3.33,2.24,5q2.33,2,4.61,4c2.58,1.91,5.13,3.85,7.64,5.79.22,1.59.44,3.18.64,4.77,1.32,1.27,2.63,2.55,3.92,3.82q2.43,1.69,4.81,3.4c1.71.91,3.4,1.83,5.09,2.76V236.46C1241.56,180.52,1214.59,150.06,1159.66,150.06Z"/><path class="cls-1" d="M1304.58,498.78c-.45-1.4-.91-2.8-1.37-4.19q-1.9-2.34-3.84-4.67-.45-2.58-.95-5.17c-.7-1.63-1.41-3.25-2.14-4.88,0-1.87,0-3.73,0-5.6q-1.47-2.28-3-4.55c-1.27-1.42-2.57-2.83-3.87-4.25-.66-1.63-1.34-3.27-2-4.9-2-1.18-4-2.34-6-3.5-.18-1.81-.36-3.61-.55-5.42-.86-1.53-1.72-3.06-2.6-4.59-.4-1.46-.81-2.91-1.23-4.37-.17-.18-.33-.36-.5-.53v57.48H1305C1304.83,499.35,1304.71,499.07,1304.58,498.78Zm26.86-49.08V150.06h-54.93V416.18c.6,1.34,1.18,2.67,1.77,4,.66,2,1.32,4.07,2,6.11q2.3,2.61,4.53,5.24,2,2,3.86,4c.45,1.57.89,3.13,1.31,4.7q-1,2.64-2,5.28c.93,1.42,1.84,2.85,2.75,4.29q1.41,2.64,2.76,5.3c1.53,1.55,3,3.1,4.54,4.67.3,1.72.58,3.44.85,5.15q1.88,2.11,3.71,4.23c0,1.56,0,3.12-.08,4.68q1.1,2.07,2.17,4.16c-.09,1.52-.18,3-.28,4.56s-.36,3-.56,4.45c.79,1.35,1.57,2.72,2.34,4.08,1.2,1.24,2.38,2.49,3.56,3.75,0,1.58-.06,3.17-.1,4.75h112.23V449.7Z"/><path class="cls-1" d="M716.69,187V150.37H661.76V261.79c11.43-15.37,22.47-30.65,28.19-39.63C696.65,211.65,707,198.76,716.69,187Z"/><path class="cls-1" d="M788.36,354l-1.23,1.27-8,8.3h0l-9.37,9.72s9.29-7,9.37-3.82v.2a83.56,83.56,0,0,1-1.25,10L779.12,390V500h55.93V305.53l-43.11,44.7Z"/><path class="cls-1" d="M779.12,150.37v70.15c15.52-20.83,41.54-55.67,53.22-70.15Z"/><path class="cls-1" d="M846.33,147.47l-11.28,14.88h0l-55.93,73.82v64H753.26c-9.37-3.72-8.44-1.43-13.67-2.2-6-.89,4.11-15.05,4.11-15.05l-13.08,17.25h0l-46.19,61,7.16-15.93-7.16,5.65,23-34,11.29-16.69h-2V243.92c1.67-3.09,3.49-6,3.49-8.58,0-4-2.32-8.8-3.49-11v-7.44c2.47-10.84,10.82-24,10.82-24l-10.82,14.28h0l-54.93,72.5h0l-7.46,9.85s7.38-6.89,7.46-3.61V286c0,3.42-3.34,8.9-2.75,11.59.27,1.27,1.54,4,2.75,7.27V467l6.9-7.94,3.7-4.25,44.33-51V350.13h56.87l37.17-31.61a68.4,68.4,0,0,1,7.24-6.15,136.86,136.86,0,0,0,17.08-14.29V203.31c1.14-4.23,3.37-9.55,3.37-13.5,0-5.64-3.37-12.7-3.37-12.7C835.05,165.46,846.33,147.47,846.33,147.47Z"/><path class="cls-1" d="M697.63,444.7l-11.82,12-24,24.38V500h54.93V431.82c.32-3,3.26-5.21,3.85-6.74,2.62-6.84,5.88-8.23,10.83-14.58l-14.68,14.88Z"/></g></g></svg>